<?xml version="1.0" encoding="UTF-8" standalone="no"?>
<!-- Created with Inkscape (http://www.inkscape.org/) -->

<svg
   xmlns:dc="http://purl.org/dc/elements/1.1/"
   xmlns:cc="http://creativecommons.org/ns#"
   xmlns:rdf="http://www.w3.org/1999/02/22-rdf-syntax-ns#"
   xmlns:svg="http://www.w3.org/2000/svg"
   xmlns="http://www.w3.org/2000/svg"
   xmlns:sodipodi="http://sodipodi.sourceforge.net/DTD/sodipodi-0.dtd"
   xmlns:inkscape="http://www.inkscape.org/namespaces/inkscape"
   version="1.1"
   id="svg815"
   width="650.34271"
   height="655.77234"
   viewBox="0 0 650.34271 655.77234"
   sodipodi:docname="eliminar-icono.svg"
   inkscape:version="0.92.5 (2060ec1f9f, 2020-04-08)">
  <metadata
     id="metadata821">
    <rdf:RDF>
      <cc:Work
         rdf:about="">
        <dc:format>image/svg+xml</dc:format>
        <dc:type
           rdf:resource="http://purl.org/dc/dcmitype/StillImage" />
        <dc:title></dc:title>
      </cc:Work>
    </rdf:RDF>
  </metadata>
  <defs
     id="defs819" />
  <sodipodi:namedview
     pagecolor="#ffffff"
     bordercolor="#666666"
     borderopacity="1"
     objecttolerance="10"
     gridtolerance="10"
     guidetolerance="10"
     inkscape:pageopacity="0"
     inkscape:pageshadow="2"
     inkscape:window-width="1689"
     inkscape:window-height="991"
     id="namedview817"
     showgrid="false"
     inkscape:zoom="0.78137843"
     inkscape:cx="502.87923"
     inkscape:cy="300.51555"
     inkscape:window-x="-8"
     inkscape:window-y="0"
     inkscape:window-maximized="0"
     inkscape:current-layer="svg815"
     fit-margin-top="0.5"
     fit-margin-left="0.5"
     fit-margin-right="0.5"
     fit-margin-bottom="0.5" />
  <ellipse
     style="opacity:1;fill:#ff0000;fill-opacity:1;stroke:#ff0000;stroke-width:1.93707955;stroke-linecap:round;stroke-linejoin:round;stroke-miterlimit:4;stroke-dasharray:none;stroke-opacity:1;paint-order:stroke markers fill"
     id="path825"
     cx="325.17136"
     cy="327.88617"
     rx="323.70282"
     ry="326.41763" />
  <path
     style="fill:#ffffff;stroke:#ffffff;stroke-width:1px;stroke-linecap:butt;stroke-linejoin:miter;stroke-opacity:1"
     d="m 179.38545,186.30233 291.79204,-0.18743 -21.11653,318.63546 c -1.04716,8.49529 -0.98899,17.12416 -12.7979,17.91706 H 219.05893 c -16.0559,0.63539 -17.36543,-10.49744 -17.91705,-17.27716 z"
     id="path829"
     inkscape:connector-curvature="0"
     sodipodi:nodetypes="ccccccc" />
  <path
     style="fill:#ff0000;stroke:#ff0000;stroke-width:1px;stroke-linecap:butt;stroke-linejoin:miter;stroke-opacity:1"
     d="m 251.85354,481.71415 c 0.88784,9.62545 14.40193,8.97268 13.59777,-0.79987 L 248.49409,223.83654 c -0.4077,-7.53766 -12.85773,-6.34616 -12.95787,1.11982 z"
     id="path833"
     inkscape:connector-curvature="0"
     sodipodi:nodetypes="ccccc" />
  <path
     style="fill:#ff0000;stroke:#ff0000;stroke-width:1px;stroke-linecap:butt;stroke-linejoin:miter;stroke-opacity:1"
     d="m 318.88252,225.2763 c 0.23804,-9.01157 13.09194,-9.16005 13.59777,-0.47992 l -0.15998,256.1179 c -0.13198,9.02971 -12.7971,10.16906 -13.43779,0.47992 z"
     id="path835"
     inkscape:connector-curvature="0"
     sodipodi:nodetypes="ccccc" />
  <path
     style="fill:#ff0000;stroke:#ff0000;stroke-width:1px;stroke-linecap:butt;stroke-linejoin:miter;stroke-opacity:1"
     d="m 385.75153,482.51402 c -0.53396,8.7506 13.19847,9.28704 13.27782,0.31995 l 16.95721,-257.87761 c 0.32165,-10.29156 -12.99469,-9.27542 -13.27782,-0.6399 z"
     id="path837"
     inkscape:connector-curvature="0"
     sodipodi:nodetypes="ccccc" />
  <path
     style="fill:#ffffff;stroke:#ffffff;stroke-width:1px;stroke-linecap:butt;stroke-linejoin:miter;stroke-opacity:1"
     d="m 170.74688,180.00375 309.38914,0.31994 -2.55958,-36.79395 c 0.30011,-8.43562 -2.6958,-6.22321 -7.67874,-6.71889 h -84.14617 l -0.63989,-16.95722 c -0.29009,-9.35321 -5.05261,-12.02935 -11.51811,-12.158 H 278.8891 c -9.45877,0.95841 -11.46161,5.96041 -12.47795,12.7979 l -0.6399,15.67742 h -84.46611 c -4.89113,0.17296 -8.31717,-0.42269 -8.63858,9.59842 z"
     id="path839"
     inkscape:connector-curvature="0"
     sodipodi:nodetypes="ccccccccccccc" />
  <path
     style="fill:#ff0000;stroke:#ff0000;stroke-width:1px;stroke-linecap:butt;stroke-linejoin:miter;stroke-opacity:1"
     d="m 280.06721,120.86861 0.22624,14.70541 91.62598,-0.22624 -0.22624,-13.80045 z"
     id="path841"
     inkscape:connector-curvature="0" />
</svg>
