<?xml version="1.0" encoding="UTF-8" standalone="no"?>
<!-- Created with Inkscape (http://www.inkscape.org/) -->

<svg
   xmlns:dc="http://purl.org/dc/elements/1.1/"
   xmlns:cc="http://creativecommons.org/ns#"
   xmlns:rdf="http://www.w3.org/1999/02/22-rdf-syntax-ns#"
   xmlns:svg="http://www.w3.org/2000/svg"
   xmlns="http://www.w3.org/2000/svg"
   xmlns:sodipodi="http://sodipodi.sourceforge.net/DTD/sodipodi-0.dtd"
   xmlns:inkscape="http://www.inkscape.org/namespaces/inkscape"
   version="1.1"
   id="svg3713"
   width="157.69691"
   height="141.71449"
   viewBox="0 0 157.69691 141.71449"
   sodipodi:docname="Logo.svg"
   inkscape:version="0.92.5 (2060ec1f9f, 2020-04-08)">
  <metadata
     id="metadata3719">
    <rdf:RDF>
      <cc:Work
         rdf:about="">
        <dc:format>image/svg+xml</dc:format>
        <dc:type
           rdf:resource="http://purl.org/dc/dcmitype/StillImage" />
        <dc:title></dc:title>
      </cc:Work>
    </rdf:RDF>
  </metadata>
  <defs
     id="defs3717" />
  <sodipodi:namedview
     pagecolor="#ffffff"
     bordercolor="#666666"
     borderopacity="1"
     objecttolerance="10"
     gridtolerance="10"
     guidetolerance="10"
     inkscape:pageopacity="0"
     inkscape:pageshadow="2"
     inkscape:window-width="1920"
     inkscape:window-height="1001"
     id="namedview3715"
     showgrid="false"
     inkscape:zoom="5.5289261"
     inkscape:cx="78.848456"
     inkscape:cy="85.326599"
     inkscape:window-x="-9"
     inkscape:window-y="-9"
     inkscape:window-maximized="1"
     inkscape:current-layer="svg3713"
     fit-margin-left="0.5"
     fit-margin-top="0.5"
     fit-margin-right="0.5"
     fit-margin-bottom="0.5" />
  <path
     style="opacity:0.01000001;fill:none;stroke:#000000;stroke-width:1px;stroke-linecap:butt;stroke-linejoin:miter;stroke-opacity:1"
     d="M 137.89116,57.718642 75.539672,72.693887 104.40106,110.26815"
     id="path3727"
     inkscape:connector-curvature="0"
     inkscape:export-xdpi="96"
     inkscape:export-ydpi="96" />
  <path
     style="opacity:0.01000001;fill:#800080;fill-opacity:1;stroke:#000000"
     id="path4536"
     d="m 66.871862,89.253737 c -1.09128,0.81325 -2.2252,1.56781 -3.36096,2.31715 -0.18094,0.11742 -0.35665,0.24331 -0.54283,0.35225 -1.30734,0.76497 -2.61624,1.52759 -3.93705,2.26908 -0.6455,0.36238 -1.41286,0.56518 -2.10146,0.83139 -1.00142,0.44221 -1.97557,0.94077 -2.97223,1.39349 -0.80385,0.39327 -1.64425,0.70033 -2.46592,1.05021 0.22251,-0.10266 -0.79966,0.41828 -0.60452,0.30489 6.89522,-4.00652 1.22614,-0.63947 -1.09919,0.61678 7.09598,-4.07993 0.87056,-0.49228 -0.68202,0.36201 -0.45879,0.25244 -1.01173,0.35228 -1.48882,0.57158 -0.61173,0.32675 -1.27516,0.53459 -1.89748,0.837983 -0.33926,0.0949 -0.65107,0.25261 -0.95945,0.4186 -0.1143,0.0615 -0.45453,0.25094 -0.34213,0.186 2.5814,-1.491363 6.31252,-3.605473 -0.7273,0.39652 -0.67912,0.3344 -1.35089,0.68714 -2.04125,0.99799 -0.27565,0.14467 -0.59046,0.15765 -0.883,0.23941 -0.23543,0.0658 -0.45667,0.16766 -0.69596,0.22813 -0.57222,0.15483 -1.04931,0.0758 -1.56807,-0.19152 -0.77912,-0.48377 -1.35321,-1.17537 -1.91223,-1.88637 -0.82467,-1.013473 -1.25799,-2.255803 -1.74959,-3.448683 -0.53376,-1.19385 -0.90225,-2.44916 -1.15483,-3.72985 -0.14573,-1.04523 -0.25294,-2.09192 -0.45786,-3.12837 -0.15553,-0.70273 -0.25514,-1.41438 -0.3044,-2.1319 -0.0231,-0.56039 -0.0486,-1.12283 -0.007,-1.6826 0.10554,-0.54146 0.30091,-1.06045 0.54958,-1.55138 0.15946,-0.23934 0.28838,-0.49515 0.45104,-0.73204 0,0 3.7404,-1.55646 3.7404,-1.55646 v 0 c -0.2473,0.17239 -0.34231,0.40122 -0.48805,0.6585 -0.32556,0.40618 -0.4484,0.91218 -0.6322,1.39138 -0.094,0.53292 -0.0256,1.08097 -0.0294,1.6199 0.0329,0.70505 0.10905,1.40655 0.25223,2.09856 0.19773,1.0404 0.33067,2.08663 0.44168,3.13959 0.22501,1.26124 0.58142,2.49222 1.10662,3.66356 0.47542,1.15927 0.89171,2.36793 1.71183,3.33915 0.53266,0.65261 1.07535,1.31357 1.84283,1.701593 0.47626,0.16808 0.93465,0.11414 1.41224,-0.0408 0.51128,-0.163303 1.04097,-0.273363 1.52637,-0.508783 0.6752,-0.32983 1.35509,-0.65054 2.02055,-0.99987 -1.02135,0.59441 -4.0982,2.355023 -3.06403,1.783233 1.71701,-0.949353 3.2941,-2.078013 5.11808,-2.780033 0.63542,-0.26914 1.27446,-0.5293 1.89897,-0.82333 0.37177,-0.14055 0.74811,-0.27048 1.11335,-0.4277 0.11933,-0.0514 0.46584,-0.22893 0.35436,-0.16222 -1.02624,0.61412 -8.15717,4.724473 0.67975,-0.37699 0.10439,-0.0569 0.20848,-0.1143 0.31318,-0.17062 0.0922,-0.0496 0.36777,-0.19994 0.27741,-0.1471 -1.06038,0.62019 -4.2669,2.43614 -3.18772,1.84926 1.45216,-0.78971 2.80492,-1.76798 4.32768,-2.4179 0.8233,-0.32056 1.63159,-0.67726 2.43415,-1.0466 0.99301,-0.45743 1.96337,-0.96532 2.98041,-1.36891 0.52762,-0.2029 1.06385,-0.39289 1.57764,-0.62973 0.16396,-0.0756 0.63955,-0.33457 0.48483,-0.2415 -4.57529,2.75228 -3.50421,2.08017 -2.31872,1.32535 1.11466,-0.7344 2.22815,-1.46921 3.31176,-2.2494 0,0 3.74827,-1.51292 3.74827,-1.51292 z"
     inkscape:connector-curvature="0"
     inkscape:export-xdpi="96"
     inkscape:export-ydpi="96" />
  <path
     style="opacity:0.01000001;fill:#00ffff;fill-opacity:1;stroke:#000000"
     id="path4538"
     d="m 35.953842,72.309417 c -0.0269,1.07185 -0.0244,2.1442 -0.0257,3.21632 0.0116,1.21285 -0.1224,2.4207 -0.18888,3.63067 -0.0139,1.08134 -0.20624,2.14444 -0.38057,3.20771 -0.14096,0.80727 -0.19595,1.62395 -0.21987,2.44185 -0.017,0.78985 -0.0155,1.57988 -0.0178,2.36985 1.4e-4,0.74569 0.0113,1.49132 0.01,2.237 -0.004,0.75953 -9.2e-4,1.51906 -0.003,2.2786 -0.004,0.85302 -0.001,1.70605 -0.004,2.55907 7.4e-4,0.82942 0.002,1.65883 0.004,2.48824 0.005,0.63783 -0.0229,1.27418 0.0703,1.90656 0.10082,0.46467 0.45209,0.76791 0.8024,1.05753 0.32473,0.311393 0.61269,0.658613 1.04047,0.822693 0.55512,0.13653 1.13608,0.11942 1.70417,0.12544 0.74014,9.7e-4 1.48027,-0.002 2.22041,3.7e-4 0.78273,0.0246 1.557,-0.12126 2.28107,-0.41405 1.3139,-0.721233 0.85587,-0.471893 -2.86787,1.64236 -0.0959,0.0545 0.18973,-0.11256 0.28403,-0.16978 0.26727,-0.16219 0.51236,-0.33399 0.75583,-0.52966 0.36875,-0.26945 0.6535,-0.60844 0.92618,-0.96815 0.23911,-0.377383 0.50924,-0.738983 0.69835,-1.144753 0.21476,-0.46913 0.34446,-0.95916 0.41589,-1.46823 0.008,-0.0877 0.0168,-0.17532 0.0252,-0.26298 0,0 3.61364,-1.80503 3.61364,-1.80503 v 0 c -0.006,0.0923 -0.012,0.18451 -0.018,0.27677 -0.0526,0.5327 -0.13515,1.06538 -0.36774,1.55364 -0.13847,0.45712 -0.40025,0.8297 -0.65694,1.22661 -0.24144,0.41251 -0.53057,0.77408 -0.88985,1.0912 -0.31458,0.24437 -0.15857,0.11329 -0.46655,0.394973 -0.134,0.10512 -0.41498,0.27177 -0.56202,0.3565 -3.81423,2.19781 -2.41198,1.62286 -4.06784,2.28102 -0.7652,0.22245 -1.54902,0.33149 -2.34817,0.29833 -0.74554,0.006 -1.49124,0.0136 -2.23675,10e-4 -0.61284,-0.0155 -1.25002,-7e-5 -1.82082,-0.25564 -0.42046,-0.23612 -0.74318,-0.58217 -1.09168,-0.91111 -0.4176,-0.35773 -0.80159,-0.76301 -0.94057,-1.31168 -0.10743,-0.654433 -0.10159,-1.306663 -0.0847,-1.969323 0.002,-0.83081 0.003,-1.66162 0.004,-2.49243 -0.003,-0.85177 -7e-5,-1.70354 -0.004,-2.5553 -0.002,-0.75819 6.3e-4,-1.51639 -0.004,-2.27457 -0.003,-0.74789 0.006,-1.49577 0.004,-2.24366 -0.004,-0.79235 -0.0113,-1.58494 0.005,-2.37717 0.025,-0.83636 0.0564,-1.67445 0.21231,-2.49897 0.17893,-1.05237 0.39583,-2.10239 0.40961,-3.1745 0.0754,-1.20381 0.20366,-2.40649 0.20574,-3.61295 -0.001,-1.06338 10e-4,-2.127 -0.0257,-3.1901 0,0 3.60061,-1.8346 3.60061,-1.8346 z"
     inkscape:connector-curvature="0"
     inkscape:export-xdpi="96"
     inkscape:export-ydpi="96" />
  <path
     style="opacity:0.01000001;fill:#00ffff;fill-opacity:1;stroke:#000000"
     id="path4540"
     d="m 102.77813,80.960737 c -0.9427,-0.0175 -1.88565,-0.0112 -2.828458,-0.0109 -0.97517,-0.0428 -1.93686,0.0261 -2.86935,0.31853 -0.14433,0.0557 -0.29105,0.10564 -0.43298,0.16721 -0.14202,0.0616 -0.28147,0.12938 -0.41818,0.202 -0.13369,0.071 -0.52376,0.30397 -0.39243,0.22864 5.452068,-3.12741 3.38344,-2.03658 2.22081,-1.17307 -0.75952,0.58043 -1.50571,1.17745 -2.25415,1.77191 -0.67349,0.53304 -1.38661,1.01133 -2.07124,1.5293 -0.83996,0.61539 -1.56647,1.36795 -2.26582,2.13507 -0.60124,0.67019 -1.06946,1.44386 -1.58708,2.17753 -0.43437,0.64423 -0.85637,1.28989 -1.32692,1.90849 -0.45827,0.69466 -0.8409,1.43452 -1.23471,2.16643 -0.5111,0.86059 -1.17032,1.61081 -1.83295,2.35496 -0.71707,0.85005 -1.44757,1.68919 -2.21605,2.49335 -1.51385,1.55935 -3.49292,2.50506 -5.40752,3.504593 -0.53904,0.26706 -1.13014,0.335 -1.72186,0.36883 -0.64461,0.0116 -1.29289,0.0429 -1.93302,-0.0412 -1.08421,-0.0748 -1.79036,-0.83645 -2.44339,-1.621513 -0.86355,-1.22379 -1.53033,-2.57253 -2.16424,-3.92547 -0.48899,-1.19852 -0.89159,-2.43846 -1.22893,-3.68855 -0.16452,-0.85891 -0.42499,-1.69327 -0.6366,-2.54008 -0.16569,-0.75294 -0.21507,-1.52202 -0.24113,-2.29019 -0.0104,-0.46246 -0.006,-0.23402 -0.0125,-0.68533 0,0 3.58835,-1.8321 3.58835,-1.8321 v 0 c 0.001,0.44847 -3.3e-4,0.2217 0.004,0.68031 0.0171,0.74215 0.0485,1.48748 0.19839,2.21686 0.20211,0.84945 0.46562,1.68406 0.60992,2.54746 0.30984,1.23496 0.69906,2.45698 1.16282,3.64194 0.61853,1.32151 1.26062,2.64454 2.13356,3.82068 0.63464,0.72886 1.2878,1.32277 2.30725,1.34086 0.63336,0.0339 1.26951,0.0203 1.90205,-0.0258 0.56735,-0.0666 1.11575,-0.19914 1.61398,-0.49156 1.29496,-0.70795 1.0209,-0.56173 -2.83506,1.66733 -0.11312,0.0654 0.22395,-0.13509 0.33072,-0.21041 0.38372,-0.27065 0.7461,-0.57793 1.08178,-0.90548 0.79438,-0.77493 1.51845,-1.62239 2.22677,-2.47562 0.65176,-0.72796 1.31082,-1.4466 1.84569,-2.26832 0.43128,-0.71585 0.77478,-1.48143 1.21105,-2.19571 0.19702,-0.30884 0.44408,-0.55346 0.65308,-0.85213 0.1318,-0.18834 0.3106,-0.51826 0.43375,-0.7093 0.0785,-0.12176 0.16452,-0.23852 0.24678,-0.35778 0.54189,-0.73173 1.00519,-1.52069 1.58763,-2.22003 0.67815,-0.79414 1.41392,-1.55663 2.23154,-2.20708 0.68107,-0.51772 1.37658,-1.00887 2.06006,-1.52377 0.77449,-0.56652 1.49766,-1.20389 2.26685,-1.77826 1.79606,-1.38783 3.76522,-2.6193 5.919628,-3.34732 0.96232,-0.22475 1.94281,-0.25317 2.92857,-0.22968 0.95279,3.5e-4 1.90571,0.006 2.8584,-0.0109 0,0 -3.26929,2.37528 -3.26929,2.37528 z"
     inkscape:connector-curvature="0"
     inkscape:export-xdpi="96"
     inkscape:export-ydpi="96" />
  <path
     style="fill:none;stroke:#000000;stroke-width:1.29999995;stroke-linecap:butt;stroke-linejoin:miter;stroke-miterlimit:4;stroke-dasharray:none;stroke-opacity:1"
     d="M 148.78225,89.847357 113.80146,55.122334"
     id="path4544"
     inkscape:connector-curvature="0"
     sodipodi:nodetypes="cc"
     inkscape:export-xdpi="96"
     inkscape:export-ydpi="96" />
  <path
     style="fill:none;stroke:#000000;stroke-width:1px;stroke-linecap:butt;stroke-linejoin:miter;stroke-opacity:1"
     d="m 108.75749,69.154287 c -4.8489,-7.966 8.37523,-6.66922 4.08416,-24.777229"
     id="path4546"
     inkscape:connector-curvature="0"
     sodipodi:nodetypes="cc"
     inkscape:export-xdpi="96"
     inkscape:export-ydpi="96" />
  <path
     style="fill:none;stroke:#000000;stroke-width:1px;stroke-linecap:butt;stroke-linejoin:miter;stroke-opacity:1"
     d="M 102.35198,70.345157 C 97.990872,51.716108 115.46604,53.477039 112.84165,44.377058 106.99615,23.072003 105.77364,25.06116 89.933862,9.9872955 c -9.43765,-9.90410304 -19.72921,-14.780343 -20.52771,2.3236835 -0.40479,8.670594 -0.78943,15.04889 2.02525,22.039139 4.32908,10.75126 12.52143,17.905213 20.71654,21.651626"
     id="path4548"
     inkscape:connector-curvature="0"
     sodipodi:nodetypes="cccssc"
     inkscape:export-xdpi="96"
     inkscape:export-ydpi="96" />
  <path
     style="fill:#000000;stroke:#000000;stroke-width:1px;stroke-linecap:butt;stroke-linejoin:miter;stroke-opacity:1"
     d="m 149.32908,83.725927 7.3161,-72.198399 -56.796068,-1.5402325 c 0.600708,0.9237835 1.214848,1.8333935 1.836978,2.7345665 7.53438,10.913759 16.24113,20.590017 16.46857,39.216663 0.009,0.761623 0.0385,0.993655 0.35909,2.092214 l 1.2129,1.737341 z"
     id="path4550"
     inkscape:connector-curvature="0"
     sodipodi:nodetypes="cccssccc"
     inkscape:export-xdpi="96"
     inkscape:export-ydpi="96" />
  <path
     style="fill:none;stroke:#000000;stroke-width:1px;stroke-linecap:butt;stroke-linejoin:miter;stroke-opacity:1"
     d="m 69.814572,140.71454 c -4.48102,-15.6216 2.43237,-24.32507 27.91672,-26.76154"
     id="path4909"
     inkscape:connector-curvature="0"
     sodipodi:nodetypes="cc"
     inkscape:export-xdpi="96"
     inkscape:export-ydpi="96" />
  <path
     style="fill:none;stroke:#000000;stroke-width:1px;stroke-linecap:butt;stroke-linejoin:miter;stroke-opacity:1"
     d="m 73.756582,121.09993 c -5.41808,-3.26916 -5.21461,-10.95072 4.46036,-12.50332 4.32697,-0.69438 7.70926,-5.13177 11.42813,-6.96547"
     id="path4911"
     inkscape:connector-curvature="0"
     sodipodi:nodetypes="csc"
     inkscape:export-xdpi="96"
     inkscape:export-ydpi="96" />
  <path
     style="fill:none;stroke:#000000;stroke-width:1px;stroke-linecap:butt;stroke-linejoin:miter;stroke-opacity:1"
     d="m 76.356502,109.0429 c 1.66151,1.25519 3.88112,2.1445 8.23639,1.63367"
     id="path4913"
     inkscape:connector-curvature="0"
     sodipodi:nodetypes="cc"
     inkscape:export-xdpi="96"
     inkscape:export-ydpi="96" />
  <path
     style="fill:none;stroke:#000000;stroke-width:1px;stroke-linecap:butt;stroke-linejoin:miter;stroke-opacity:1"
     d="m 73.429532,110.13201 c -7.54576,-1.86547 -7.62208,-4.12685 -8.03218,-7.01114"
     id="path4915"
     inkscape:connector-curvature="0"
     sodipodi:nodetypes="cc"
     inkscape:export-xdpi="96"
     inkscape:export-ydpi="96" />
  <path
     style="fill:none;stroke:#000000;stroke-width:1px;stroke-linecap:butt;stroke-linejoin:miter;stroke-opacity:1"
     d="m 91.263682,90.391907 c -3.69161,6.31277 -18.50026,16.692803 -36.34901,10.686883"
     id="path4917"
     inkscape:connector-curvature="0"
     sodipodi:nodetypes="cc"
     inkscape:export-xdpi="96"
     inkscape:export-ydpi="96" />
  <path
     style="fill:none;stroke:#000000;stroke-width:0.98516864px;stroke-linecap:butt;stroke-linejoin:miter;stroke-opacity:1"
     d="m 69.821852,102.7501 c 3.80893,-0.9067 4.00727,-6.485793 4.08416,-12.222053"
     id="path4919"
     inkscape:connector-curvature="0"
     sodipodi:nodetypes="cc"
     inkscape:export-xdpi="96"
     inkscape:export-ydpi="96" />
  <path
     style="fill:none;stroke:#000000;stroke-width:1.39999998;stroke-linecap:round;stroke-linejoin:round;stroke-miterlimit:4;stroke-dasharray:none;stroke-opacity:1;paint-order:stroke markers fill"
     d="m 64.206132,103.22298 c 6.17549,-5.760663 3.40826,-6.070603 1.63366,-6.534663 -2.46515,0.0738 -2.20549,0.11175 -3.39575,0.51482 -13.56836,4.594693 -11.35497,16.703903 -29.31155,12.792733 -3.92594,-2.03971 -9.17681,0.29237 -16.54084,-2.17821 C -6.2459578,96.167627 1.5390622,70.634967 7.1980922,65.070127 20.001392,50.179766 22.743262,43.081607 31.703042,37.842405 c 15.83928,-7.429549 28.36719,-7.53924 39.34406,-4.220297"
     id="path4921"
     inkscape:connector-curvature="0"
     sodipodi:nodetypes="ccsccccc"
     inkscape:export-xdpi="96"
     inkscape:export-ydpi="96" />
  <path
     style="fill:none;stroke:#000000;stroke-width:1px;stroke-linecap:butt;stroke-linejoin:miter;stroke-opacity:1"
     d="m 34.425812,110.30218 c -0.44571,-3.20083 4.11086,-4.34831 7.79394,-4.66274 3.89358,-1.60597 3.54779,-3.71424 7.9641,0.20421"
     id="path4923"
     inkscape:connector-curvature="0"
     sodipodi:nodetypes="ccc"
     inkscape:export-xdpi="96"
     inkscape:export-ydpi="96" />
  <path
     style="fill:none;stroke:#000000;stroke-width:1px;stroke-linecap:butt;stroke-linejoin:miter;stroke-opacity:1"
     d="m 25.244092,109.13977 c -6.48872,-15.054743 -5.42185,-5.39778 -17.9051998,-8.27875"
     id="path4925"
     inkscape:connector-curvature="0"
     sodipodi:nodetypes="cc"
     inkscape:export-xdpi="96"
     inkscape:export-ydpi="96" />
  <path
     style="fill:none;stroke:#000000;stroke-width:1px;stroke-linecap:butt;stroke-linejoin:miter;stroke-opacity:1"
     d="m 36.925142,59.160957 c -0.40573,1.16255 -4.74113,4.22936 4.78019,1.84654 7.87978,-2.8332 2.57839,-2.996723 1.66953,-3.29051 -4.36532,-1.967282 -5.4607,-0.320439 -6.44972,1.44397 z"
     id="path4927"
     inkscape:connector-curvature="0"
     sodipodi:nodetypes="cccc"
     inkscape:export-xdpi="96"
     inkscape:export-ydpi="96" />
  <path
     style="fill:none;stroke:#000000;stroke-width:1px;stroke-linecap:butt;stroke-linejoin:miter;stroke-opacity:1"
     d="M 69.821852,9.7978505 42.049572,8.7087415 C 62.045602,36.018767 65.197862,25.886162 67.915912,32.669137"
     id="path4929"
     inkscape:connector-curvature="0"
     sodipodi:nodetypes="ccc"
     inkscape:export-xdpi="96"
     inkscape:export-ydpi="96" />
  <path
     style="fill:none;stroke:#000000;stroke-width:1px;stroke-linecap:butt;stroke-linejoin:miter;stroke-opacity:1"
     d="M 60.019872,31.307751 C 48.452812,26.573391 43.709982,16.720861 36.876302,8.4364645 l -25.86633,-0.816832 6.26237,33.7623765 c 14.43641,-8.069392 13.94081,-7.620075 14.4307,-3.539604"
     id="path4931"
     inkscape:connector-curvature="0"
     sodipodi:nodetypes="ccccc"
     inkscape:export-xdpi="96"
     inkscape:export-ydpi="96" />
  <path
     style="fill:none;stroke:#000000;stroke-width:1px;stroke-linecap:butt;stroke-linejoin:miter;stroke-opacity:1"
     d="m 69.814572,140.71454 -33.50006,-0.48132 -5.58334,-31.18971"
     id="path4933"
     inkscape:connector-curvature="0"
     inkscape:export-xdpi="96"
     inkscape:export-ydpi="96" />
  <path
     style="opacity:1;fill:#000000;fill-opacity:1;stroke:#000000;stroke-width:0.61199999;stroke-linejoin:miter;stroke-miterlimit:0;stroke-dasharray:none"
     d="m 23.070212,108.47126 c -1.81,-0.10125 -4.15615,-0.50046 -5.57458,-0.94854 -1.85799,-0.58694 -5.64031,-3.06044 -7.7216898,-5.0497 l -0.71022,-0.6788 0.91451,0.0741 c 1.3529098,0.10958 3.4966698,0.0815 4.4281698,-0.058 0.45004,-0.0674 1.48969,-0.27721 2.31035,-0.46627 1.69684,-0.39091 2.57036,-0.44254 3.06741,-0.1813 1.10115,0.57875 2.23975,2.2658 3.81525,5.65305 0.39723,0.85403 0.72224,1.59056 0.72224,1.63673 0,0.0811 -0.10702,0.0827 -1.25144,0.0187 z"
     id="path5413"
     inkscape:connector-curvature="0"
     inkscape:export-xdpi="96"
     inkscape:export-ydpi="96" />
  <path
     style="opacity:1;fill:#000000;fill-opacity:1;stroke:#000000;stroke-width:0.45899999;stroke-linejoin:miter;stroke-miterlimit:0;stroke-dasharray:none"
     d="m 51.853302,139.91298 c -5.95636,-0.0934 -11.78498,-0.17359 -12.95247,-0.17827 l -2.1227,-0.009 -2.62628,-14.70441 c -1.44446,-8.08742 -2.64728,-14.78022 -2.67294,-14.87287 -0.0638,-0.23028 0.0616,-0.21381 0.88615,0.11633 2.07758,0.83191 7.23777,1.27692 9.76667,0.84227 1.33931,-0.23019 2.51688,-0.59495 3.62548,-1.12302 2.03871,-0.97113 3.05437,-1.77662 6.1956,-4.91354 1.29895,-1.29716 2.59852,-2.56006 2.88794,-2.80643 l 0.52621,-0.44796 1.1968,0.32777 c 2.3037,0.63092 5.58034,1.19282 6.9653,1.19446 0.27594,3.2e-4 0.62823,0.0666 0.78287,0.14721 0.19277,0.10053 0.31231,0.11547 0.38025,0.0475 0.18108,-0.18108 0.22768,-0.10394 0.29462,0.48769 0.34539,3.05284 2.0683,4.71814 6.26381,6.05434 l 0.96264,0.30659 -0.73726,0.75347 c -1.16994,1.19565 -1.8156,2.70347 -1.81208,4.23179 0.003,1.39057 0.43659,2.70198 1.28478,3.88776 0.40404,0.56484 1.3132,1.49508 1.76449,1.80538 0.20893,0.14366 0.20323,0.15333 -0.54579,0.92689 -2.35032,2.42731 -3.67613,5.26765 -4.04901,8.67435 -0.15727,1.43688 -0.0689,4.20866 0.18476,5.79288 0.16477,1.02916 0.56896,2.92849 0.74231,3.4881 0.049,0.15831 -0.14115,0.16761 -3.1551,0.1542 -1.76401,-0.008 -8.08068,-0.0907 -14.03705,-0.18401 z"
     id="path5415"
     inkscape:connector-curvature="0"
     inkscape:export-xdpi="96"
     inkscape:export-ydpi="96" />
  <path
     style="opacity:1;fill:#000000;fill-opacity:1;stroke:#000000;stroke-width:0.34400001;stroke-linejoin:miter;stroke-miterlimit:0;stroke-dasharray:none"
     d="m 36.281762,61.287047 c -0.0881,-0.0559 0.0253,-0.27216 0.41548,-0.79271 0.29511,-0.39371 0.67235,-0.9699 0.83831,-1.28043 0.41235,-0.77152 1.04443,-1.449666 1.53789,-1.649966 0.80015,-0.324785 2.0643,-0.174235 3.49666,0.416424 0.3679,0.151712 0.84188,0.307262 1.05328,0.345682 0.97873,0.17786 1.68104,0.36848 1.63457,0.44367 -0.11093,0.17949 -1.14464,0.69714 -2.39019,1.19694 -2.07752,0.83365 -6.08664,1.63741 -6.586,1.32039 z"
     id="path5417"
     inkscape:connector-curvature="0"
     inkscape:export-xdpi="96"
     inkscape:export-ydpi="96" />
  <path
     style="opacity:1;fill:#000000;fill-opacity:1;stroke:#000000;stroke-width:1.03299999;stroke-linejoin:miter;stroke-miterlimit:0;stroke-dasharray:none"
     d="m 17.641902,40.308994 c -0.15103,-0.504096 -5.93993,-32.0069565 -5.8906,-32.0562835 0.0563,-0.05625 2.71489,0.01262 12.18529,0.315644 2.35607,0.07539 5.8216,0.181898 7.70116,0.236689 1.87957,0.05479 3.77656,0.124873 4.21554,0.155737 l 0.79815,0.05612 1.10266,1.4109305 c 0.60646,0.776011 2.07648,2.730173 3.26669,4.342583 4.35984,5.906352 6.19001,8.090549 8.94667,10.67727 1.99514,1.872141 4.58399,3.743318 6.79534,4.911548 0.9962,0.526284 1.0733,0.585209 0.77011,0.588555 -1.20022,0.01324 -4.58426,0.216335 -5.67667,0.34068 -5.86916,0.66807 -11.81645,2.317832 -17.99855,4.992754 -0.92332,0.399512 -1.68515,0.71653 -1.69296,0.704484 -0.008,-0.01205 -0.0667,-0.326047 -0.13099,-0.697782 -0.15784,-0.913349 -0.43502,-1.387202 -0.97397,-1.665087 -0.5312,-0.273888 -1.10684,-0.237054 -2.26182,0.144729 -1.02706,0.339498 -4.6343,2.158331 -8.1656,4.117245 -1.57908,0.875957 -2.88656,1.59265 -2.90552,1.59265 -0.0189,0 -0.0572,-0.07581 -0.0849,-0.168463 z"
     id="path5419"
     inkscape:connector-curvature="0"
     inkscape:export-xdpi="96"
     inkscape:export-ydpi="96" />
  <path
     style="opacity:1;fill:#000000;fill-opacity:1;stroke:#000000;stroke-width:0.29899999;stroke-linejoin:miter;stroke-miterlimit:0;stroke-dasharray:none"
     d="m 69.198892,32.54986 -0.80028,-0.208012 -0.35909,-0.682417 c -0.82559,-1.568947 -1.31941,-1.92832 -3.87347,-2.818931 -2.04528,-0.713196 -3.36578,-1.346014 -4.84794,-2.323247 -4.02951,-2.656786 -9.22052,-8.066577 -14.73146,-15.352347 -0.68081,-0.900074 -1.28345,-1.6960175 -1.33919,-1.7687645 -0.085,-0.110993 0.0531,-0.12263 0.85892,-0.07235 0.52815,0.03295 6.20188,0.257006 12.60828,0.497895 6.40641,0.2408895 11.79406,0.4605045 11.97256,0.4880325 l 0.32456,0.05005 -0.0584,0.546966 c -0.0322,0.300831 -0.12862,2.106451 -0.21439,4.012489 -0.18532,4.118475 -0.14176,9.089756 0.0974,11.118554 0.26302,2.231007 0.79978,4.861689 1.25464,6.148967 0.24415,0.690946 0.29286,0.671116 -0.8921,0.363116 z"
     id="path5421"
     inkscape:connector-curvature="0"
     inkscape:export-xdpi="96"
     inkscape:export-ydpi="96" />
</svg>
