<?xml version="1.0" encoding="UTF-8" standalone="no"?>
<!-- Created with Inkscape (http://www.inkscape.org/) -->

<svg
   xmlns:dc="http://purl.org/dc/elements/1.1/"
   xmlns:cc="http://creativecommons.org/ns#"
   xmlns:rdf="http://www.w3.org/1999/02/22-rdf-syntax-ns#"
   xmlns:svg="http://www.w3.org/2000/svg"
   xmlns="http://www.w3.org/2000/svg"
   xmlns:sodipodi="http://sodipodi.sourceforge.net/DTD/sodipodi-0.dtd"
   xmlns:inkscape="http://www.inkscape.org/namespaces/inkscape"
   version="1.1"
   id="svg3713"
   width="472.23444"
   height="142.31403"
   viewBox="0 0 472.23443 142.31402"
   sodipodi:docname="Logo.svg"
   inkscape:version="0.92.5 (2060ec1f9f, 2020-04-08)">
  <metadata
     id="metadata3719">
    <rdf:RDF>
      <cc:Work
         rdf:about="">
        <dc:format>image/svg+xml</dc:format>
        <dc:type
           rdf:resource="http://purl.org/dc/dcmitype/StillImage" />
        <dc:title></dc:title>
      </cc:Work>
    </rdf:RDF>
  </metadata>
  <defs
     id="defs3717" />
  <sodipodi:namedview
     pagecolor="#ffffff"
     bordercolor="#666666"
     borderopacity="1"
     objecttolerance="10"
     gridtolerance="10"
     guidetolerance="10"
     inkscape:pageopacity="0"
     inkscape:pageshadow="2"
     inkscape:window-width="1920"
     inkscape:window-height="1001"
     id="namedview3715"
     showgrid="false"
     inkscape:zoom="1.9547706"
     inkscape:cx="251.81186"
     inkscape:cy="60.866845"
     inkscape:window-x="-9"
     inkscape:window-y="-9"
     inkscape:window-maximized="1"
     inkscape:current-layer="svg3713"
     fit-margin-left="0.8"
     fit-margin-top="0.8"
     fit-margin-right="0.8"
     fit-margin-bottom="0.8" />
  <path
     style="opacity:0.01000001;fill:none;stroke:#000000;stroke-width:1px;stroke-linecap:butt;stroke-linejoin:miter;stroke-opacity:1"
     d="M 138.19116,58.018599 75.839676,72.993844 104.70106,110.56888"
     id="path3727"
     inkscape:connector-curvature="0"
     inkscape:export-xdpi="96"
     inkscape:export-ydpi="96" />
  <path
     style="opacity:0.01000001;fill:#800080;fill-opacity:1;stroke:#000000"
     id="path4536"
     d="m 67.171866,89.553729 c -1.09128,0.81325 -2.2252,1.56781 -3.36096,2.31716 -0.18094,0.11742 -0.35665,0.24331 -0.54283,0.35225 -1.307344,0.76497 -2.616244,1.52759 -3.937054,2.26909 -0.6455,0.36238 -1.41286,0.56518 -2.10146,0.83139 -1.00142,0.44221 -1.97557,0.94077 -2.97223,1.39349 -0.80385,0.39327 -1.64425,0.70034 -2.46592,1.05022 0.22251,-0.10266 -0.79966,0.41828 -0.60452,0.30489 6.89522,-4.00654 1.22614,-0.63947 -1.09919,0.61678 7.09598,-4.07994 0.87056,-0.49228 -0.68202,0.36201 -0.45879,0.25244 -1.01173,0.35228 -1.48882,0.57158 -0.61173,0.32675 -1.27516,0.534591 -1.89748,0.838701 -0.33926,0.0949 -0.65107,0.25261 -0.95945,0.4186 -0.1143,0.0615 -0.45453,0.25094 -0.34213,0.186 2.5814,-1.492081 6.31252,-3.606191 -0.7273,0.39652 -0.67912,0.3344 -1.35089,0.68713 -2.04125,0.99798 -0.27565,0.14467 -0.59046,0.15765 -0.883,0.23941 -0.23543,0.0658 -0.45667,0.16766 -0.69596,0.22813 -0.57222,0.15483 -1.04931,0.0758 -1.56807,-0.19152 -0.77912,-0.48377 -1.35321,-1.17536 -1.91223,-1.88636 -0.82467,-1.014191 -1.25799,-2.256521 -1.74959,-3.449401 -0.53376,-1.19386 -0.90225,-2.44917 -1.15483,-3.72987 -0.14573,-1.04523 -0.25294,-2.09192 -0.45786,-3.12838 -0.15553,-0.70273 -0.25514,-1.41438 -0.3044,-2.1319 -0.0231,-0.56039 -0.0486,-1.12284 -0.007,-1.68261 0.10554,-0.54146 0.30091,-1.06045 0.54958,-1.55138 0.15946,-0.23934 0.28838,-0.49515 0.45104,-0.73204 0,0 3.7404,-1.55647 3.7404,-1.55647 v 0 c -0.2473,0.17239 -0.34231,0.40122 -0.48805,0.6585 -0.32556,0.40618 -0.4484,0.91219 -0.6322,1.39139 -0.094,0.53292 -0.0256,1.08097 -0.0294,1.6199 0.0329,0.70505 0.10905,1.40656 0.25223,2.09857 0.19773,1.0404 0.33067,2.08663 0.44168,3.1396 0.22501,1.26124 0.58142,2.49222 1.10662,3.66357 0.47542,1.15927 0.89171,2.36794 1.71183,3.33916 0.53266,0.65261 1.07535,1.313571 1.84283,1.702311 0.47626,0.16808 0.93465,0.11414 1.41224,-0.0408 0.51128,-0.16402 1.04097,-0.27408 1.52637,-0.509501 0.6752,-0.32983 1.35509,-0.65054 2.02055,-0.99987 -1.02135,0.59441 -4.0982,2.355741 -3.06403,1.783951 1.71701,-0.950071 3.2941,-2.078731 5.11808,-2.780751 0.63542,-0.26914 1.27446,-0.5293 1.89897,-0.82334 0.37177,-0.14055 0.74811,-0.27048 1.11335,-0.4277 0.11933,-0.0514 0.46584,-0.22893 0.35436,-0.16222 -1.02624,0.61412 -8.15717,4.725201 0.67975,-0.37699 0.10439,-0.0569 0.20848,-0.1143 0.31318,-0.17062 0.0922,-0.0496 0.36777,-0.19994 0.27741,-0.1471 -1.06038,0.62019 -4.2669,2.43615 -3.18772,1.84927 1.45216,-0.78972 2.80492,-1.76799 4.32768,-2.41791 0.8233,-0.32056 1.63159,-0.67726 2.43415,-1.04661 0.99301,-0.45743 1.96337,-0.96532 2.98041,-1.36891 0.52762,-0.2029 1.06385,-0.39289 1.57764,-0.62973 0.16396,-0.0756 0.63955,-0.33457 0.48483,-0.2415 -4.57529,2.75229 -3.50421,2.08017 -2.31872,1.32535 1.11466,-0.7344 2.22815,-1.46921 3.311764,-2.24941 0,0 3.74827,-1.51292 3.74827,-1.51292 z"
     inkscape:connector-curvature="0"
     inkscape:export-xdpi="96"
     inkscape:export-ydpi="96" />
  <path
     style="opacity:0.01000001;fill:#00ffff;fill-opacity:1;stroke:#000000"
     id="path4538"
     d="m 36.253842,72.609374 c -0.0269,1.07185 -0.0244,2.1442 -0.0257,3.21632 0.0116,1.21285 -0.1224,2.420705 -0.18888,3.630675 -0.0139,1.08134 -0.20624,2.14445 -0.38057,3.20772 -0.14096,0.80727 -0.19595,1.62395 -0.21987,2.44186 -0.017,0.78985 -0.0155,1.57988 -0.0178,2.36986 1.4e-4,0.74569 0.0113,1.49132 0.01,2.237 -0.004,0.75953 -9.2e-4,1.51906 -0.003,2.27861 -0.004,0.85302 -10e-4,1.70605 -0.004,2.55908 7.4e-4,0.82942 0.002,1.65883 0.004,2.48824 0.005,0.63784 -0.0229,1.27419 0.0703,1.90657 0.10082,0.46467 0.45209,0.76791 0.8024,1.057531 0.32473,0.31211 0.61269,0.65933 1.04047,0.82341 0.55512,0.13653 1.13608,0.11942 1.70417,0.12544 0.74014,9.7e-4 1.48027,-0.002 2.22041,3.7e-4 0.78273,0.0246 1.557,-0.12126 2.28107,-0.41405 1.3139,-0.721951 0.85587,-0.47261 -2.86787,1.64235 -0.0959,0.0545 0.18973,-0.11256 0.28403,-0.16978 0.26727,-0.16218 0.51236,-0.33398 0.75583,-0.52965 0.36875,-0.26945 0.6535,-0.60844 0.92618,-0.96815 0.23911,-0.3781 0.50924,-0.739701 0.69835,-1.145471 0.21476,-0.46913 0.34446,-0.95916 0.41589,-1.46823 0.008,-0.0877 0.0168,-0.17532 0.0252,-0.26298 0,0 3.61364,-1.80504 3.61364,-1.80504 v 0 c -0.006,0.0923 -0.012,0.18451 -0.018,0.27677 -0.0526,0.5327 -0.13515,1.06538 -0.36774,1.55365 -0.13847,0.45712 -0.40025,0.8297 -0.65694,1.22661 -0.24144,0.41251 -0.53057,0.77408 -0.88985,1.0912 -0.31458,0.244371 -0.15857,0.113291 -0.46655,0.395691 -0.134,0.10512 -0.41498,0.27177 -0.56202,0.3565 -3.81423,2.1978 -2.41198,1.62285 -4.06784,2.28101 -0.7652,0.22245 -1.54902,0.33149 -2.34817,0.29833 -0.74554,0.006 -1.49124,0.0136 -2.23675,10e-4 -0.61284,-0.0155 -1.25002,-7e-5 -1.82082,-0.25564 -0.42046,-0.23612 -0.74318,-0.58217 -1.09168,-0.91111 -0.4176,-0.35772 -0.80159,-0.763 -0.94057,-1.31167 -0.10743,-0.65515 -0.10159,-1.307381 -0.0847,-1.970041 0.002,-0.83081 0.003,-1.66163 0.004,-2.49244 -0.003,-0.85177 -7e-5,-1.70354 -0.004,-2.55531 -0.002,-0.75819 6.3e-4,-1.51639 -0.004,-2.27457 -0.003,-0.7479 0.006,-1.49578 0.004,-2.24367 -0.004,-0.79235 -0.0113,-1.58494 0.005,-2.37718 0.025,-0.83636 0.0564,-1.67445 0.21231,-2.49897 0.17893,-1.05238 0.39583,-2.1024 0.40961,-3.17452 0.0754,-1.20381 0.20366,-2.40649 0.20574,-3.61295 -10e-4,-1.063385 10e-4,-2.127005 -0.0257,-3.190105 0,0 3.60061,-1.8346 3.60061,-1.8346 z"
     inkscape:connector-curvature="0"
     inkscape:export-xdpi="96"
     inkscape:export-ydpi="96" />
  <path
     style="opacity:0.01000001;fill:#00ffff;fill-opacity:1;stroke:#000000"
     id="path4540"
     d="m 103.07813,81.260699 c -0.9427,-0.0175 -1.88565,-0.0112 -2.82845,-0.0109 -0.975174,-0.0428 -1.936864,0.0261 -2.869354,0.31854 -0.14433,0.0557 -0.29105,0.10564 -0.43298,0.16721 -0.14202,0.0616 -0.28147,0.12938 -0.41818,0.202 -0.13369,0.071 -0.52376,0.30397 -0.39243,0.22864 5.452064,-3.12742 3.38344,-2.03659 2.22081,-1.17308 -0.75952,0.58044 -1.50571,1.17746 -2.25415,1.77192 -0.67349,0.53304 -1.38661,1.01133 -2.07124,1.5293 -0.83996,0.6154 -1.56647,1.36796 -2.26582,2.13508 -0.60124,0.67019 -1.06946,1.44387 -1.58708,2.17754 -0.43437,0.64423 -0.85637,1.28989 -1.32692,1.90849 -0.45827,0.69466 -0.8409,1.43453 -1.23471,2.16644 -0.5111,0.86059 -1.17032,1.61081 -1.83295,2.35497 -0.71707,0.85005 -1.44757,1.68919 -2.21605,2.49336 -1.51385,1.55935 -3.49292,2.505061 -5.40752,3.505311 -0.53904,0.26706 -1.13014,0.335 -1.72186,0.36883 -0.64461,0.0116 -1.29289,0.0429 -1.93302,-0.0412 -1.08421,-0.0748 -1.79036,-0.83645 -2.44339,-1.622231 -0.86355,-1.22379 -1.53033,-2.57254 -2.16424,-3.92548 -0.48899,-1.19852 -0.89159,-2.43847 -1.22893,-3.68856 -0.16452,-0.85892 -0.42499,-1.69328 -0.6366,-2.54009 -0.16569,-0.75294 -0.21507,-1.52202 -0.24113,-2.2902 -0.0104,-0.46246 -0.006,-0.23402 -0.0125,-0.68533 0,0 3.58835,-1.8321 3.58835,-1.8321 v 0 c 0.001,0.44847 -3.3e-4,0.2217 0.004,0.68031 0.0171,0.74215 0.0485,1.48748 0.19839,2.21687 0.20211,0.84945 0.46562,1.68406 0.60992,2.54746 0.30984,1.23497 0.69906,2.45699 1.16282,3.64195 0.61853,1.32152 1.26062,2.64455 2.13356,3.8207 0.63464,0.72886 1.2878,1.32277 2.30725,1.34086 0.63336,0.0339 1.26951,0.0203 1.90205,-0.0258 0.56735,-0.0666 1.11575,-0.19914 1.61398,-0.49156 1.29496,-0.70795 1.0209,-0.56173 -2.83506,1.667331 -0.11312,0.0654 0.22395,-0.13509 0.33072,-0.210411 0.38372,-0.27065 0.7461,-0.57793 1.08178,-0.90548 0.79438,-0.77493 1.51845,-1.62239 2.22677,-2.47563 0.65176,-0.72796 1.31082,-1.4466 1.84569,-2.26832 0.43128,-0.71586 0.77478,-1.48144 1.21105,-2.19572 0.19702,-0.30884 0.44408,-0.55346 0.65308,-0.85214 0.1318,-0.18834 0.3106,-0.51826 0.43375,-0.7093 0.0785,-0.12176 0.16452,-0.23852 0.24678,-0.35778 0.54189,-0.73173 1.00519,-1.52069 1.58763,-2.22003 0.67815,-0.79415 1.41392,-1.55664 2.23154,-2.20709 0.68107,-0.51772 1.37658,-1.00887 2.06006,-1.52378 0.77449,-0.56652 1.49766,-1.20389 2.26685,-1.77826 1.79606,-1.38784 3.76522,-2.61931 5.919624,-3.34733 0.96232,-0.22475 1.94281,-0.25317 2.92857,-0.22968 0.95279,3.5e-4 1.90571,0.006 2.8584,-0.0109 0,0 -3.26929,2.37528 -3.26929,2.37528 z"
     inkscape:connector-curvature="0"
     inkscape:export-xdpi="96"
     inkscape:export-ydpi="96" />
  <path
     style="fill:none;stroke:#000000;stroke-width:1.29999995;stroke-linecap:butt;stroke-linejoin:miter;stroke-miterlimit:4;stroke-dasharray:none;stroke-opacity:1"
     d="M 149.08225,90.147349 114.10146,55.422291"
     id="path4544"
     inkscape:connector-curvature="0"
     sodipodi:nodetypes="cc"
     inkscape:export-xdpi="96"
     inkscape:export-ydpi="96" />
  <path
     style="fill:none;stroke:#000000;stroke-width:1px;stroke-linecap:butt;stroke-linejoin:miter;stroke-opacity:1"
     d="m 109.05749,69.454244 c -4.8489,-7.966 8.37523,-6.66922 4.08416,-24.777229"
     id="path4546"
     inkscape:connector-curvature="0"
     sodipodi:nodetypes="cc"
     inkscape:export-xdpi="96"
     inkscape:export-ydpi="96" />
  <path
     style="fill:none;stroke:#000000;stroke-width:1px;stroke-linecap:butt;stroke-linejoin:miter;stroke-opacity:1"
     d="M 102.65198,70.645114 C 98.290876,52.016065 115.76604,53.776996 113.14165,44.677015 107.29615,23.37196 106.07364,25.361117 90.233866,10.2873 c -9.43765,-9.90410052 -19.72921,-14.7803395 -20.52771,2.323636 -0.40479,8.670594 -0.78943,15.04889 2.02525,22.039139 4.32908,10.75126 12.52143,17.905213 20.71654,21.651626"
     id="path4548"
     inkscape:connector-curvature="0"
     sodipodi:nodetypes="cccssc"
     inkscape:export-xdpi="96"
     inkscape:export-ydpi="96" />
  <path
     style="fill:#000000;stroke:#000000;stroke-width:1px;stroke-linecap:butt;stroke-linejoin:miter;stroke-opacity:1"
     d="m 149.62908,84.025899 7.3161,-72.198414 -56.79606,-1.540185 c 0.6007,0.923736 1.21484,1.833346 1.83697,2.734519 7.53438,10.913759 16.24113,20.590017 16.46857,39.216663 0.009,0.761623 0.0385,0.993655 0.35909,2.092214 l 1.2129,1.737341 z"
     id="path4550"
     inkscape:connector-curvature="0"
     sodipodi:nodetypes="cccssccc"
     inkscape:export-xdpi="96"
     inkscape:export-ydpi="96" />
  <path
     style="fill:none;stroke:#000000;stroke-width:1px;stroke-linecap:butt;stroke-linejoin:miter;stroke-opacity:1"
     d="m 70.114576,141.01408 c -4.48102,-15.6216 2.43237,-24.32507 27.91672,-26.76154"
     id="path4909"
     inkscape:connector-curvature="0"
     sodipodi:nodetypes="cc"
     inkscape:export-xdpi="96"
     inkscape:export-ydpi="96" />
  <path
     style="fill:none;stroke:#000000;stroke-width:1px;stroke-linecap:butt;stroke-linejoin:miter;stroke-opacity:1"
     d="m 74.056586,121.39947 c -5.41808,-3.26916 -5.21461,-10.95072 4.46036,-12.50332 4.32697,-0.69438 7.70926,-5.13177 11.42813,-6.96546"
     id="path4911"
     inkscape:connector-curvature="0"
     sodipodi:nodetypes="csc"
     inkscape:export-xdpi="96"
     inkscape:export-ydpi="96" />
  <path
     style="fill:none;stroke:#000000;stroke-width:1px;stroke-linecap:butt;stroke-linejoin:miter;stroke-opacity:1"
     d="m 76.656506,109.34244 c 1.66151,1.25519 3.88112,2.1445 8.23639,1.63367"
     id="path4913"
     inkscape:connector-curvature="0"
     sodipodi:nodetypes="cc"
     inkscape:export-xdpi="96"
     inkscape:export-ydpi="96" />
  <path
     style="fill:none;stroke:#000000;stroke-width:1px;stroke-linecap:butt;stroke-linejoin:miter;stroke-opacity:1"
     d="m 73.729536,110.43155 c -7.54576,-1.86547 -7.62208,-4.12685 -8.03218,-7.01114"
     id="path4915"
     inkscape:connector-curvature="0"
     sodipodi:nodetypes="cc"
     inkscape:export-xdpi="96"
     inkscape:export-ydpi="96" />
  <path
     style="fill:none;stroke:#000000;stroke-width:1px;stroke-linecap:butt;stroke-linejoin:miter;stroke-opacity:1"
     d="m 91.563686,90.691899 c -3.69161,6.31279 -18.50026,16.693541 -36.349014,10.687631"
     id="path4917"
     inkscape:connector-curvature="0"
     sodipodi:nodetypes="cc"
     inkscape:export-xdpi="96"
     inkscape:export-ydpi="96" />
  <path
     style="fill:none;stroke:#000000;stroke-width:0.98516864px;stroke-linecap:butt;stroke-linejoin:miter;stroke-opacity:1"
     d="m 70.121856,103.05083 c 3.80893,-0.9067 4.00727,-6.486511 4.08416,-12.222791"
     id="path4919"
     inkscape:connector-curvature="0"
     sodipodi:nodetypes="cc"
     inkscape:export-xdpi="96"
     inkscape:export-ydpi="96" />
  <path
     style="fill:none;stroke:#000000;stroke-width:1.39999998;stroke-linecap:round;stroke-linejoin:round;stroke-miterlimit:4;stroke-dasharray:none;stroke-opacity:1;paint-order:stroke markers fill"
     d="m 64.506136,103.52371 c 6.17549,-5.761371 3.40826,-6.071311 1.63366,-6.535381 -2.46515,0.0738 -2.20549,0.11175 -3.395754,0.51483 -13.56836,4.595401 -11.35497,16.704611 -29.31155,12.793441 -3.92594,-2.03971 -9.17681,0.29237 -16.54084,-2.17821 C -5.9459578,96.467639 1.8390622,70.934924 7.4980922,65.370084 20.301392,50.479723 23.043262,43.381564 32.003042,38.142362 c 15.83928,-7.429549 28.36719,-7.53924 39.344064,-4.220297"
     id="path4921"
     inkscape:connector-curvature="0"
     sodipodi:nodetypes="ccsccccc"
     inkscape:export-xdpi="96"
     inkscape:export-ydpi="96" />
  <path
     style="fill:none;stroke:#000000;stroke-width:1px;stroke-linecap:butt;stroke-linejoin:miter;stroke-opacity:1"
     d="m 34.725812,110.60172 c -0.44571,-3.20083 4.11086,-4.34831 7.79394,-4.66274 3.89358,-1.60597 3.54779,-3.71424 7.9641,0.20421"
     id="path4923"
     inkscape:connector-curvature="0"
     sodipodi:nodetypes="ccc"
     inkscape:export-xdpi="96"
     inkscape:export-ydpi="96" />
  <path
     style="fill:none;stroke:#000000;stroke-width:1px;stroke-linecap:butt;stroke-linejoin:miter;stroke-opacity:1"
     d="m 25.544092,109.4405 c -6.48872,-15.055461 -5.42185,-5.39778 -17.9051998,-8.27874"
     id="path4925"
     inkscape:connector-curvature="0"
     sodipodi:nodetypes="cc"
     inkscape:export-xdpi="96"
     inkscape:export-ydpi="96" />
  <path
     style="fill:none;stroke:#000000;stroke-width:1px;stroke-linecap:butt;stroke-linejoin:miter;stroke-opacity:1"
     d="m 37.225142,59.460914 c -0.40573,1.16255 -4.74113,4.22936 4.78019,1.84654 7.87978,-2.8332 2.57839,-2.996723 1.66953,-3.29051 -4.36532,-1.967282 -5.4607,-0.320439 -6.44972,1.44397 z"
     id="path4927"
     inkscape:connector-curvature="0"
     sodipodi:nodetypes="cccc"
     inkscape:export-xdpi="96"
     inkscape:export-ydpi="96" />
  <path
     style="fill:none;stroke:#000000;stroke-width:1px;stroke-linecap:butt;stroke-linejoin:miter;stroke-opacity:1"
     d="M 70.121856,10.097855 42.349572,9.0087465 C 62.345602,36.318724 65.497866,26.186119 68.215916,32.969094"
     id="path4929"
     inkscape:connector-curvature="0"
     sodipodi:nodetypes="ccc"
     inkscape:export-xdpi="96"
     inkscape:export-ydpi="96" />
  <path
     style="fill:none;stroke:#000000;stroke-width:1px;stroke-linecap:butt;stroke-linejoin:miter;stroke-opacity:1"
     d="M 60.319872,31.607708 C 48.752812,26.873348 44.009982,17.020818 37.176302,8.7364695 l -25.86633,-0.816832 6.26237,33.7623285 c 14.43641,-8.069392 13.94081,-7.620075 14.4307,-3.539604"
     id="path4931"
     inkscape:connector-curvature="0"
     sodipodi:nodetypes="ccccc"
     inkscape:export-xdpi="96"
     inkscape:export-ydpi="96" />
  <path
     style="fill:none;stroke:#000000;stroke-width:1px;stroke-linecap:butt;stroke-linejoin:miter;stroke-opacity:1"
     d="m 70.114576,141.01408 -33.500064,-0.48132 -5.58334,-31.18971"
     id="path4933"
     inkscape:connector-curvature="0"
     inkscape:export-xdpi="96"
     inkscape:export-ydpi="96" />
  <path
     style="opacity:1;fill:#000000;fill-opacity:1;stroke:#000000;stroke-width:0.61199999;stroke-linejoin:miter;stroke-miterlimit:0;stroke-dasharray:none"
     d="m 23.370212,108.7708 c -1.81,-0.10125 -4.15615,-0.50046 -5.57458,-0.94854 -1.85799,-0.58694 -5.64031,-3.06044 -7.72169,-5.0497 l -0.7102198,-0.6788 0.9145098,0.0741 c 1.35291,0.10958 3.49667,0.0815 4.42817,-0.058 0.45004,-0.0674 1.48969,-0.2772 2.31035,-0.46626 1.69684,-0.39091 2.57036,-0.44254 3.06741,-0.1813 1.10115,0.57874 2.23975,2.26579 3.81525,5.65304 0.39723,0.85403 0.72224,1.59056 0.72224,1.63673 0,0.0811 -0.10702,0.0827 -1.25144,0.0187 z"
     id="path5413"
     inkscape:connector-curvature="0"
     inkscape:export-xdpi="96"
     inkscape:export-ydpi="96" />
  <path
     style="opacity:1;fill:#000000;fill-opacity:1;stroke:#000000;stroke-width:0.45899999;stroke-linejoin:miter;stroke-miterlimit:0;stroke-dasharray:none"
     d="m 52.153302,140.21252 c -5.95636,-0.0934 -11.78498,-0.17359 -12.95247,-0.17827 l -2.1227,-0.009 -2.62628,-14.70441 c -1.44446,-8.08742 -2.64728,-14.78022 -2.67294,-14.87287 -0.0638,-0.23028 0.0616,-0.21381 0.88615,0.11633 2.07758,0.83191 7.23777,1.27692 9.76667,0.84227 1.33931,-0.23019 2.51688,-0.59495 3.62548,-1.12302 2.03871,-0.97113 3.05437,-1.77662 6.1956,-4.91354 1.29895,-1.29716 2.59852,-2.56006 2.88794,-2.80643 l 0.52621,-0.44796 1.1968,0.32777 c 2.3037,0.63092 5.58034,1.19282 6.965304,1.19446 0.27594,3.2e-4 0.62823,0.0666 0.78287,0.14721 0.19277,0.10053 0.31231,0.11547 0.38025,0.0475 0.18108,-0.18108 0.22768,-0.10394 0.29462,0.48769 0.34539,3.05284 2.0683,4.71814 6.26381,6.05434 l 0.96264,0.30659 -0.73726,0.75347 c -1.16994,1.19565 -1.8156,2.70347 -1.81208,4.23179 0.003,1.39057 0.43659,2.70198 1.28478,3.88776 0.40404,0.56484 1.3132,1.49508 1.76449,1.80538 0.20893,0.14366 0.20323,0.15333 -0.54579,0.92689 -2.35032,2.42731 -3.67613,5.26765 -4.04901,8.67435 -0.15727,1.43688 -0.0689,4.20866 0.18476,5.79288 0.16477,1.02916 0.56896,2.92849 0.74231,3.4881 0.049,0.15831 -0.14115,0.16761 -3.1551,0.1542 -1.76401,-0.008 -8.080684,-0.0907 -14.037054,-0.18401 z"
     id="path5415"
     inkscape:connector-curvature="0"
     inkscape:export-xdpi="96"
     inkscape:export-ydpi="96" />
  <path
     style="opacity:1;fill:#000000;fill-opacity:1;stroke:#000000;stroke-width:0.34400001;stroke-linejoin:miter;stroke-miterlimit:0;stroke-dasharray:none"
     d="m 36.581762,61.587004 c -0.0881,-0.0559 0.0253,-0.27216 0.41548,-0.79271 0.29511,-0.39371 0.67235,-0.9699 0.83831,-1.28043 0.41235,-0.77152 1.04443,-1.449666 1.53789,-1.649966 0.80015,-0.324785 2.0643,-0.174235 3.49666,0.416424 0.3679,0.151712 0.84188,0.307262 1.05328,0.345682 0.97873,0.17786 1.68104,0.36848 1.63457,0.44367 -0.11093,0.17949 -1.14464,0.69714 -2.39019,1.19694 -2.07752,0.83365 -6.08664,1.63741 -6.586,1.32039 z"
     id="path5417"
     inkscape:connector-curvature="0"
     inkscape:export-xdpi="96"
     inkscape:export-ydpi="96" />
  <path
     style="opacity:1;fill:#000000;fill-opacity:1;stroke:#000000;stroke-width:1.03299999;stroke-linejoin:miter;stroke-miterlimit:0;stroke-dasharray:none"
     d="m 17.941902,40.608951 c -0.15103,-0.504096 -5.93993,-32.0069085 -5.8906,-32.0562355 0.0563,-0.05625 2.71489,0.01262 12.18529,0.315644 2.35607,0.07539 5.8216,0.181898 7.70116,0.236689 1.87957,0.05479 3.77656,0.124873 4.21554,0.155737 l 0.79815,0.05612 1.10266,1.4108825 c 0.60646,0.776011 2.07648,2.730173 3.26669,4.342583 4.35984,5.906352 6.19001,8.090549 8.94667,10.67727 1.99514,1.872141 4.58399,3.743318 6.79534,4.911548 0.9962,0.526284 1.0733,0.585209 0.77011,0.588555 -1.20022,0.01324 -4.58426,0.216335 -5.67667,0.34068 -5.86916,0.66807 -11.81645,2.317832 -17.99855,4.992754 -0.92332,0.399512 -1.68515,0.71653 -1.69296,0.704484 -0.008,-0.01205 -0.0667,-0.326047 -0.13099,-0.697782 -0.15784,-0.913349 -0.43502,-1.387202 -0.97397,-1.665087 -0.5312,-0.273888 -1.10684,-0.237054 -2.26182,0.144729 -1.02706,0.339498 -4.6343,2.158331 -8.1656,4.117245 -1.57908,0.875957 -2.88656,1.59265 -2.90552,1.59265 -0.0189,0 -0.0572,-0.07581 -0.0849,-0.168463 z"
     id="path5419"
     inkscape:connector-curvature="0"
     inkscape:export-xdpi="96"
     inkscape:export-ydpi="96" />
  <path
     style="opacity:1;fill:#000000;fill-opacity:1;stroke:#000000;stroke-width:0.29899999;stroke-linejoin:miter;stroke-miterlimit:0;stroke-dasharray:none"
     d="m 69.498896,32.849817 -0.80028,-0.208012 -0.35909,-0.682417 c -0.82559,-1.568947 -1.31941,-1.92832 -3.87347,-2.818931 -2.045284,-0.713196 -3.365784,-1.346014 -4.847944,-2.323247 -4.02951,-2.656786 -9.22052,-8.066577 -14.73146,-15.352347 -0.68081,-0.900074 -1.28345,-1.6959695 -1.33919,-1.7687165 -0.085,-0.110993 0.0531,-0.12263 0.85892,-0.07235 0.52815,0.03295 6.20188,0.257006 12.60828,0.4978945 6.406414,0.240842 11.794064,0.460457 11.972564,0.487985 l 0.32456,0.05005 -0.0584,0.546966 c -0.0322,0.300831 -0.12862,2.106451 -0.21439,4.012489 -0.18532,4.118475 -0.14176,9.089756 0.0974,11.118554 0.26302,2.231007 0.79978,4.861689 1.25464,6.148967 0.24415,0.690946 0.29286,0.671116 -0.8921,0.363116 z"
     id="path5421"
     inkscape:connector-curvature="0"
     inkscape:export-xdpi="96"
     inkscape:export-ydpi="96" />
  <text
     xml:space="preserve"
     style="font-style:normal;font-weight:normal;font-size:40px;line-height:1.25;font-family:sans-serif;letter-spacing:0px;word-spacing:0px;fill:#000000;fill-opacity:1;stroke:none"
     x="163.08026"
     y="34.941994"
     id="text877"><tspan
       sodipodi:role="line"
       id="tspan875"
       x="163.08026"
       y="34.941994"
       style="font-style:normal;font-variant:normal;font-weight:bold;font-stretch:normal;font-size:42.66666794px;line-height:0.25;font-family:'Times New Roman';-inkscape-font-specification:'Times New Roman, Bold'"><tspan
   style="font-size:48px"
   id="tspan887">S</tspan>ERVICIO</tspan><tspan
       sodipodi:role="line"
       x="163.08026"
       y="84.941994"
       id="tspan879"
       style="font-style:normal;font-variant:normal;font-weight:bold;font-stretch:normal;font-size:42.66666794px;line-height:0.25;font-family:'Times New Roman';-inkscape-font-specification:'Times New Roman, Bold'"><tspan
   style="font-size:48px"
   id="tspan885">I</tspan>NTEGRAL</tspan><tspan
       sodipodi:role="line"
       x="163.08026"
       y="134.94199"
       id="tspan881"
       style="font-style:normal;font-variant:normal;font-weight:bold;font-stretch:normal;font-size:42.66666794px;line-height:0.25;font-family:'Times New Roman';-inkscape-font-specification:'Times New Roman, Bold'" /></text>
  <text
     xml:space="preserve"
     style="font-style:normal;font-weight:normal;font-size:40px;line-height:1.25;font-family:sans-serif;letter-spacing:0px;word-spacing:0px;fill:#000000;fill-opacity:1;stroke:none"
     x="157.71599"
     y="129.65334"
     id="text891"><tspan
       sodipodi:role="line"
       id="tspan889"
       x="157.71599"
       y="129.65334"
       style="font-style:normal;font-variant:normal;font-weight:bold;font-stretch:normal;font-size:42.66666794px;font-family:'Times New Roman';-inkscape-font-specification:'Times New Roman,  Bold'"><tspan
   style="font-size:48px"
   id="tspan893">V</tspan>ETERINARIO</tspan></text>
</svg>
